<svg width="148" height="31" viewBox="0 0 148 31" fill="none" xmlns="http://www.w3.org/2000/svg">
<g filter="url(#filter0_d_2_15)">
<path d="M16.5498 12.1847H14.3339C14.2487 11.7112 14.0901 11.2945 13.8581 10.9347C13.6261 10.5748 13.342 10.2694 13.0058 10.0185C12.6696 9.76752 12.2932 9.57812 11.8765 9.45028C11.4646 9.32244 11.0266 9.25852 10.5626 9.25852C9.72454 9.25852 8.97407 9.46922 8.31119 9.89062C7.65305 10.312 7.13221 10.9299 6.74869 11.7443C6.3699 12.5587 6.18051 13.553 6.18051 14.7273C6.18051 15.911 6.3699 16.91 6.74869 17.7244C7.13221 18.5388 7.65541 19.1544 8.31829 19.571C8.98117 19.9877 9.72691 20.196 10.5555 20.196C11.0148 20.196 11.4504 20.1345 11.8623 20.0114C12.279 19.8835 12.6554 19.6965 12.9916 19.4503C13.3278 19.2041 13.6119 18.9034 13.8439 18.5483C14.0806 18.1884 14.244 17.7765 14.3339 17.3125L16.5498 17.3196C16.4315 18.0346 16.2018 18.6927 15.8609 19.294C15.5247 19.8906 15.0915 20.4067 14.5612 20.8423C14.0356 21.2732 13.4343 21.607 12.7572 21.8438C12.0801 22.0805 11.3415 22.1989 10.5413 22.1989C9.28183 22.1989 8.15968 21.9006 7.17483 21.304C6.18998 20.7027 5.41346 19.8433 4.84528 18.7259C4.28183 17.6084 4.00011 16.2756 4.00011 14.7273C4.00011 13.1742 4.2842 11.8414 4.85238 10.7287C5.42057 9.61127 6.19708 8.75426 7.18193 8.15767C8.16678 7.55634 9.28657 7.25568 10.5413 7.25568C11.3131 7.25568 12.0328 7.36695 12.7004 7.58949C13.3727 7.80729 13.9764 8.12926 14.5115 8.5554C15.0465 8.9768 15.4892 9.4929 15.8396 10.1037C16.19 10.7098 16.4267 11.4034 16.5498 12.1847Z" fill="#F60202"/>
<path d="M31.8108 14.7273C31.8108 16.2803 31.5267 17.6155 30.9586 18.733C30.3904 19.8456 29.6115 20.7027 28.6219 21.304C27.6371 21.9006 26.5173 22.1989 25.2625 22.1989C24.0031 22.1989 22.8785 21.9006 21.889 21.304C20.9041 20.7027 20.1276 19.8433 19.5594 18.7259C18.9912 17.6084 18.7071 16.2756 18.7071 14.7273C18.7071 13.1742 18.9912 11.8414 19.5594 10.7287C20.1276 9.61127 20.9041 8.75426 21.889 8.15767C22.8785 7.55634 24.0031 7.25568 25.2625 7.25568C26.5173 7.25568 27.6371 7.55634 28.6219 8.15767C29.6115 8.75426 30.3904 9.61127 30.9586 10.7287C31.5267 11.8414 31.8108 13.1742 31.8108 14.7273ZM29.6375 14.7273C29.6375 13.5436 29.4458 12.5469 29.0623 11.7372C28.6835 10.9228 28.1626 10.3073 27.4998 9.89062C26.8416 9.46922 26.0959 9.25852 25.2625 9.25852C24.4245 9.25852 23.6764 9.46922 23.0182 9.89062C22.3601 10.3073 21.8392 10.9228 21.4557 11.7372C21.0769 12.5469 20.8875 13.5436 20.8875 14.7273C20.8875 15.911 21.0769 16.91 21.4557 17.7244C21.8392 18.5341 22.3601 19.1496 23.0182 19.571C23.6764 19.9877 24.4245 20.196 25.2625 20.196C26.0959 20.196 26.8416 19.9877 27.4998 19.571C28.1626 19.1496 28.6835 18.5341 29.0623 17.7244C29.4458 16.91 29.6375 15.911 29.6375 14.7273ZM39.2558 22H34.547V7.45455H39.4049C40.8301 7.45455 42.0541 7.74574 43.0768 8.32812C44.0995 8.90578 44.8832 9.73674 45.4277 10.821C45.9769 11.9006 46.2515 13.1955 46.2515 14.706C46.2515 16.2211 45.9745 17.5232 45.4206 18.6122C44.8713 19.7012 44.0759 20.5393 43.0342 21.1264C41.9925 21.7088 40.7331 22 39.2558 22ZM36.7416 20.0824H39.1351C40.243 20.0824 41.1639 19.8741 41.8978 19.4574C42.6317 19.036 43.181 18.4276 43.5456 17.6321C43.9101 16.8319 44.0924 15.8565 44.0924 14.706C44.0924 13.5649 43.9101 12.5966 43.5456 11.8011C43.1857 11.0057 42.6483 10.402 41.9333 9.99006C41.2184 9.57812 40.3306 9.37216 39.27 9.37216H36.7416V20.0824ZM48.9806 22V7.45455H58.0999V9.34375H51.1752V13.7756H57.624V15.6577H51.1752V20.1108H58.1851V22H48.9806ZM74.2576 11.2756C74.1818 10.6032 73.8693 10.0824 73.3201 9.71307C72.7708 9.33902 72.0795 9.15199 71.2462 9.15199C70.6496 9.15199 70.1335 9.24669 69.6979 9.43608C69.2623 9.62074 68.9238 9.87642 68.6823 10.2031C68.4455 10.5251 68.3272 10.892 68.3272 11.304C68.3272 11.6496 68.4077 11.9479 68.5686 12.1989C68.7344 12.4498 68.9498 12.6605 69.215 12.831C69.4848 12.9967 69.7737 13.1364 70.0814 13.25C70.3892 13.3589 70.6851 13.4489 70.9692 13.5199L72.3897 13.8892C72.8537 14.0028 73.3295 14.1567 73.8172 14.3509C74.3049 14.545 74.7571 14.8007 75.1738 15.1179C75.5904 15.4351 75.9266 15.8281 76.1823 16.2969C76.4427 16.7656 76.5729 17.3267 76.5729 17.9801C76.5729 18.804 76.3598 19.5355 75.9337 20.1747C75.5123 20.8139 74.8991 21.3182 74.0942 21.6875C73.294 22.0568 72.3258 22.2415 71.1894 22.2415C70.1004 22.2415 69.1581 22.0687 68.3627 21.723C67.5672 21.3774 66.9446 20.8873 66.4948 20.2528C66.045 19.6136 65.7964 18.8561 65.749 17.9801H67.9508C67.9934 18.5057 68.1638 18.9437 68.4621 19.294C68.7651 19.6397 69.151 19.8977 69.6198 20.0682C70.0933 20.2339 70.6117 20.3168 71.1752 20.3168C71.7954 20.3168 72.3471 20.2197 72.83 20.0256C73.3177 19.8267 73.7012 19.5521 73.9806 19.2017C74.2599 18.8466 74.3996 18.4323 74.3996 17.9588C74.3996 17.5279 74.2765 17.1752 74.0303 16.9006C73.7888 16.6259 73.4597 16.3987 73.0431 16.2188C72.6311 16.0388 72.1648 15.8802 71.6439 15.7429L69.9252 15.2741C68.7604 14.9569 67.8371 14.4905 67.1553 13.875C66.4782 13.2595 66.1397 12.4451 66.1397 11.4318C66.1397 10.5937 66.3669 9.86222 66.8215 9.23722C67.276 8.61222 67.8916 8.12689 68.6681 7.78125C69.4446 7.43087 70.3205 7.25568 71.2959 7.25568C72.2808 7.25568 73.1496 7.4285 73.9025 7.77415C74.66 8.11979 75.2566 8.59564 75.6922 9.2017C76.1278 9.80303 76.3551 10.4943 76.374 11.2756H74.2576ZM79.1954 22V7.45455H84.3801C85.5117 7.45455 86.4492 7.66051 87.1926 8.07244C87.936 8.48437 88.4923 9.04782 88.8616 9.76278C89.2309 10.473 89.4156 11.2732 89.4156 12.1634C89.4156 13.0582 89.2286 13.8632 88.8545 14.5781C88.4852 15.2884 87.9265 15.8518 87.1784 16.2685C86.435 16.6804 85.4999 16.8864 84.373 16.8864H80.8076V15.0256H84.1741C84.8891 15.0256 85.4691 14.9025 85.9142 14.6562C86.3592 14.4053 86.686 14.0644 86.8943 13.6335C87.1026 13.2027 87.2068 12.7126 87.2068 12.1634C87.2068 11.6141 87.1026 11.1264 86.8943 10.7003C86.686 10.2741 86.3569 9.94034 85.9071 9.69886C85.462 9.45739 84.8749 9.33665 84.1457 9.33665H81.39V22H79.1954ZM125.241 12.1847H123.025C122.94 11.7112 122.781 11.2945 122.549 10.9347C122.317 10.5748 122.033 10.2694 121.697 10.0185C121.361 9.76752 120.985 9.57812 120.568 9.45028C120.156 9.32244 119.718 9.25852 119.254 9.25852C118.416 9.25852 117.665 9.46922 117.003 9.89062C116.344 10.312 115.824 10.9299 115.44 11.7443C115.061 12.5587 114.872 13.553 114.872 14.7273C114.872 15.911 115.061 16.91 115.44 17.7244C115.824 18.5388 116.347 19.1544 117.01 19.571C117.673 19.9877 118.418 20.196 119.247 20.196C119.706 20.196 120.142 20.1345 120.554 20.0114C120.97 19.8835 121.347 19.6965 121.683 19.4503C122.019 19.2041 122.303 18.9034 122.535 18.5483C122.772 18.1884 122.935 17.7765 123.025 17.3125L125.241 17.3196C125.123 18.0346 124.893 18.6927 124.552 19.294C124.216 19.8906 123.783 20.4067 123.253 20.8423C122.727 21.2732 122.126 21.607 121.449 21.8438C120.772 22.0805 120.033 22.1989 119.233 22.1989C117.973 22.1989 116.851 21.9006 115.866 21.304C114.881 20.7027 114.105 19.8433 113.537 18.7259C112.973 17.6084 112.692 16.2756 112.692 14.7273C112.692 13.1742 112.976 11.8414 113.544 10.7287C114.112 9.61127 114.888 8.75426 115.873 8.15767C116.858 7.55634 117.978 7.25568 119.233 7.25568C120.004 7.25568 120.724 7.36695 121.392 7.58949C122.064 7.80729 122.668 8.12926 123.203 8.5554C123.738 8.9768 124.181 9.4929 124.531 10.1037C124.881 10.7098 125.118 11.4034 125.241 12.1847ZM127.867 22V7.45455H136.987V9.34375H130.062V13.7756H136.511V15.6577H130.062V20.1108H137.072V22H127.867Z" fill="black"/>
</g>
<line y1="-0.5" x2="36.3575" y2="-0.5" transform="matrix(-0.796148 0.605102 -0.895919 -0.444217 114.817 0)" stroke="#D20606"/>
<line y1="-0.5" x2="26.2082" y2="-0.5" transform="matrix(-0.543465 0.839432 -0.971504 -0.237024 114.817 0)" stroke="#D20606"/>
<line x1="96.8977" y1="10.5" x2="119.871" y2="10.5" stroke="#D20606"/>
<defs>
<filter id="filter0_d_2_15" x="0" y="7.25568" width="141.072" height="22.9858" filterUnits="userSpaceOnUse" color-interpolation-filters="sRGB">
<feFlood flood-opacity="0" result="BackgroundImageFix"/>
<feColorMatrix in="SourceAlpha" type="matrix" values="0 0 0 0 0 0 0 0 0 0 0 0 0 0 0 0 0 0 127 0" result="hardAlpha"/>
<feOffset dy="4"/>
<feGaussianBlur stdDeviation="2"/>
<feComposite in2="hardAlpha" operator="out"/>
<feColorMatrix type="matrix" values="0 0 0 0 0 0 0 0 0 0 0 0 0 0 0 0 0 0 0.25 0"/>
<feBlend mode="normal" in2="BackgroundImageFix" result="effect1_dropShadow_2_15"/>
<feBlend mode="normal" in="SourceGraphic" in2="effect1_dropShadow_2_15" result="shape"/>
</filter>
</defs>
</svg>
