<svg width="148" height="31" viewBox="0 0 148 31" fill="none" xmlns="http://www.w3.org/2000/svg">
<path d="M8.07955 11.6963H7.02273C6.96023 11.3923 6.85085 11.1253 6.6946 10.8952C6.54119 10.665 6.35369 10.4719 6.1321 10.3156C5.91335 10.1565 5.67045 10.0372 5.40341 9.95766C5.13636 9.87811 4.85795 9.83834 4.56818 9.83834C4.03977 9.83834 3.56108 9.97186 3.1321 10.2389C2.70597 10.506 2.36648 10.8994 2.11364 11.4193C1.86364 11.9392 1.73864 12.577 1.73864 13.3327C1.73864 14.0883 1.86364 14.7261 2.11364 15.246C2.36648 15.7659 2.70597 16.1594 3.1321 16.4264C3.56108 16.6935 4.03977 16.827 4.56818 16.827C4.85795 16.827 5.13636 16.7872 5.40341 16.7077C5.67045 16.6281 5.91335 16.5102 6.1321 16.354C6.35369 16.1949 6.54119 16.0003 6.6946 15.7702C6.85085 15.5372 6.96023 15.2702 7.02273 14.969H8.07955C8 15.415 7.85511 15.8142 7.64489 16.1665C7.43466 16.5187 7.1733 16.8185 6.8608 17.0656C6.5483 17.3099 6.19744 17.496 5.80824 17.6239C5.42188 17.7517 5.00852 17.8156 4.56818 17.8156C3.82386 17.8156 3.16193 17.6338 2.58239 17.2702C2.00284 16.9065 1.54688 16.3895 1.21449 15.719C0.882102 15.0486 0.715909 14.2531 0.715909 13.3327C0.715909 12.4122 0.882102 11.6168 1.21449 10.9463C1.54688 10.2758 2.00284 9.7588 2.58239 9.39516C3.16193 9.03152 3.82386 8.84971 4.56818 8.84971C5.00852 8.84971 5.42188 8.91363 5.80824 9.04147C6.19744 9.16931 6.5483 9.35681 6.8608 9.60397C7.1733 9.84828 7.43466 10.1466 7.64489 10.4989C7.85511 10.8483 8 11.2474 8.07955 11.6963ZM16.7909 13.3327C16.7909 14.2531 16.6247 15.0486 16.2923 15.719C15.96 16.3895 15.504 16.9065 14.9244 17.2702C14.3449 17.6338 13.683 17.8156 12.9387 17.8156C12.1943 17.8156 11.5324 17.6338 10.9529 17.2702C10.3733 16.9065 9.91734 16.3895 9.58496 15.719C9.25257 15.0486 9.08638 14.2531 9.08638 13.3327C9.08638 12.4122 9.25257 11.6168 9.58496 10.9463C9.91734 10.2758 10.3733 9.7588 10.9529 9.39516C11.5324 9.03152 12.1943 8.84971 12.9387 8.84971C13.683 8.84971 14.3449 9.03152 14.9244 9.39516C15.504 9.7588 15.96 10.2758 16.2923 10.9463C16.6247 11.6168 16.7909 12.4122 16.7909 13.3327ZM15.7682 13.3327C15.7682 12.577 15.6418 11.9392 15.3889 11.4193C15.1389 10.8994 14.7994 10.506 14.3705 10.2389C13.9443 9.97186 13.4671 9.83834 12.9387 9.83834C12.4102 9.83834 11.9315 9.97186 11.5026 10.2389C11.0764 10.506 10.7369 10.8994 10.4841 11.4193C10.2341 11.9392 10.1091 12.577 10.1091 13.3327C10.1091 14.0883 10.2341 14.7261 10.4841 15.246C10.7369 15.7659 11.0764 16.1594 11.5026 16.4264C11.9315 16.6935 12.4102 16.827 12.9387 16.827C13.4671 16.827 13.9443 16.6935 14.3705 16.4264C14.7994 16.1594 15.1389 15.7659 15.3889 15.246C15.6418 14.7261 15.7682 14.0883 15.7682 13.3327ZM20.9011 17.6963H18.2079V8.96902H21.0204C21.867 8.96902 22.5914 9.14374 23.1937 9.49317C23.796 9.83976 24.2576 10.3383 24.5787 10.9889C24.8997 11.6366 25.0602 12.4122 25.0602 13.3156C25.0602 14.2247 24.8983 15.0074 24.5744 15.6636C24.2505 16.317 23.7789 16.8199 23.1596 17.1721C22.5403 17.5216 21.7875 17.6963 20.9011 17.6963ZM19.2647 16.7588H20.8329C21.5545 16.7588 22.1525 16.6196 22.6269 16.3412C23.1014 16.0628 23.4551 15.6665 23.688 15.1523C23.921 14.6381 24.0375 14.0258 24.0375 13.3156C24.0375 12.6111 23.9224 12.0045 23.6923 11.496C23.4622 10.9846 23.1184 10.5926 22.661 10.3199C22.2037 10.0443 21.634 9.90652 20.9522 9.90652H19.2647V16.7588ZM26.4729 17.6963V8.96902H31.74V9.90652H27.5297V12.8554H31.4672V13.7929H27.5297V16.7588H31.8081V17.6963H26.4729ZM41.0725 11.1508C41.0214 10.719 40.814 10.3838 40.4504 10.1452C40.0867 9.90652 39.6407 9.78721 39.1123 9.78721C38.7259 9.78721 38.3879 9.84971 38.0981 9.97471C37.8112 10.0997 37.5867 10.2716 37.4248 10.4903C37.2657 10.7091 37.1862 10.9577 37.1862 11.2361C37.1862 11.469 37.2415 11.6693 37.3523 11.8369C37.466 12.0017 37.6109 12.1395 37.787 12.2503C37.9631 12.3582 38.1478 12.4477 38.341 12.5187C38.5342 12.5869 38.7117 12.6423 38.8737 12.6849L39.76 12.9236C39.9873 12.9832 40.2401 13.0656 40.5185 13.1707C40.7998 13.2758 41.0683 13.4193 41.3239 13.6011C41.5825 13.7801 41.7955 14.0102 41.9631 14.2915C42.1308 14.5727 42.2146 14.9179 42.2146 15.327C42.2146 15.7986 42.091 16.2247 41.8438 16.6054C41.5995 16.9861 41.2415 17.2886 40.77 17.5131C40.3012 17.7375 39.7316 17.8497 39.0612 17.8497C38.4362 17.8497 37.895 17.7489 37.4376 17.5471C36.983 17.3454 36.6251 17.0642 36.3637 16.7034C36.1052 16.3426 35.9589 15.9236 35.9248 15.4463H37.0157C37.0441 15.7758 37.1549 16.0486 37.3481 16.2645C37.5441 16.4775 37.7913 16.6366 38.0896 16.7418C38.3907 16.844 38.7146 16.8952 39.0612 16.8952C39.4646 16.8952 39.8268 16.8298 40.1478 16.6991C40.4688 16.5656 40.7231 16.381 40.9106 16.1452C41.0981 15.9065 41.1918 15.6281 41.1918 15.3099C41.1918 15.0202 41.1109 14.7844 40.9489 14.6025C40.787 14.4207 40.5739 14.273 40.3097 14.1594C40.0455 14.0457 39.76 13.9463 39.4532 13.8611L38.3793 13.5543C37.6975 13.3582 37.1577 13.0784 36.76 12.7148C36.3623 12.3511 36.1634 11.8753 36.1634 11.2872C36.1634 10.7986 36.2955 10.3724 36.5597 10.0088C36.8268 9.64232 37.1847 9.35823 37.6336 9.15652C38.0853 8.95198 38.5896 8.84971 39.1464 8.84971C39.7089 8.84971 40.2089 8.95056 40.6464 9.15226C41.0839 9.35113 41.4305 9.62385 41.6862 9.97044C41.9447 10.317 42.081 10.7105 42.0952 11.1508H41.0725ZM43.5921 17.6963V8.96902H46.541C47.2257 8.96902 47.7853 9.0926 48.22 9.33976C48.6575 9.58408 48.9813 9.91505 49.1916 10.3327C49.4018 10.7503 49.5069 11.2162 49.5069 11.7304C49.5069 12.2446 49.4018 12.7119 49.1916 13.1324C48.9842 13.5528 48.6632 13.8881 48.2285 14.1381C47.7938 14.3852 47.237 14.5088 46.558 14.5088H44.4444V13.5713H46.5239C46.9927 13.5713 47.3691 13.4903 47.6532 13.3284C47.9373 13.1665 48.1433 12.9477 48.2711 12.6721C48.4018 12.3937 48.4671 12.0798 48.4671 11.7304C48.4671 11.381 48.4018 11.0685 48.2711 10.7929C48.1433 10.5173 47.9359 10.3014 47.6489 10.1452C47.362 9.98607 46.9813 9.90652 46.5069 9.90652H44.6489V17.6963H43.5921ZM75.962 11.6963H74.9052C74.8427 11.3923 74.7334 11.1253 74.5771 10.8952C74.4237 10.665 74.2362 10.4719 74.0146 10.3156C73.7959 10.1565 73.553 10.0372 73.2859 9.95766C73.0189 9.87811 72.7405 9.83834 72.4507 9.83834C71.9223 9.83834 71.4436 9.97186 71.0146 10.2389C70.5885 10.506 70.249 10.8994 69.9961 11.4193C69.7461 11.9392 69.6211 12.577 69.6211 13.3327C69.6211 14.0883 69.7461 14.7261 69.9961 15.246C70.249 15.7659 70.5885 16.1594 71.0146 16.4264C71.4436 16.6935 71.9223 16.827 72.4507 16.827C72.7405 16.827 73.0189 16.7872 73.2859 16.7077C73.553 16.6281 73.7959 16.5102 74.0146 16.354C74.2362 16.1949 74.4237 16.0003 74.5771 15.7702C74.7334 15.5372 74.8427 15.2702 74.9052 14.969H75.962C75.8825 15.415 75.7376 15.8142 75.5274 16.1665C75.3172 16.5187 75.0558 16.8185 74.7433 17.0656C74.4308 17.3099 74.0799 17.496 73.6907 17.6239C73.3044 17.7517 72.891 17.8156 72.4507 17.8156C71.7064 17.8156 71.0444 17.6338 70.4649 17.2702C69.8853 16.9065 69.4294 16.3895 69.097 15.719C68.7646 15.0486 68.5984 14.2531 68.5984 13.3327C68.5984 12.4122 68.7646 11.6168 69.097 10.9463C69.4294 10.2758 69.8853 9.7588 70.4649 9.39516C71.0444 9.03152 71.7064 8.84971 72.4507 8.84971C72.891 8.84971 73.3044 8.91363 73.6907 9.04147C74.0799 9.16931 74.4308 9.35681 74.7433 9.60397C75.0558 9.84828 75.3172 10.1466 75.5274 10.4989C75.7376 10.8483 75.8825 11.2474 75.962 11.6963ZM77.3098 17.6963V8.96902H82.5768V9.90652H78.3666V12.8554H82.3041V13.7929H78.3666V16.7588H82.645V17.6963H77.3098Z" fill="white"/>
<line y1="-0.5" x2="27.5862" y2="-0.5" transform="matrix(0.688749 -0.724999 0.717754 0.696297 50 20.6963)" stroke="#FB0000"/>
<line y1="-0.5" x2="20.0308" y2="-0.5" transform="matrix(0.395224 -0.918585 0.915531 0.402247 61.0833 19.0963)" stroke="#FB0000"/>
<line x1="50.7917" y1="8.9963" x2="68.2084" y2="8.9963" stroke="#FB0000"/>
</svg>
